<?xml version="1.0" encoding="UTF-8" standalone="no"?>
<!-- Created with Inkscape (http://www.inkscape.org/) -->

<svg
   xmlns:dc="http://purl.org/dc/elements/1.1/"
   xmlns:cc="http://creativecommons.org/ns#"
   xmlns:rdf="http://www.w3.org/1999/02/22-rdf-syntax-ns#"
   xmlns:svg="http://www.w3.org/2000/svg"
   xmlns="http://www.w3.org/2000/svg"
   xmlns:xlink="http://www.w3.org/1999/xlink"
   xmlns:sodipodi="http://sodipodi.sourceforge.net/DTD/sodipodi-0.dtd"
   xmlns:inkscape="http://www.inkscape.org/namespaces/inkscape"
   width="1460.3274"
   height="1792.0374"
   id="svg2879"
   version="1.1"
   inkscape:version="0.47 r22583"
   sodipodi:docname="pencil.svg">
  <defs
     id="defs2881">
    <linearGradient
       id="linearGradient4442">
      <stop
         style="stop-color:#535353;stop-opacity:1;"
         offset="0"
         id="stop4444" />
      <stop
         style="stop-color:#b3b3b3;stop-opacity:0;"
         offset="1"
         id="stop4446" />
    </linearGradient>
    <linearGradient
       inkscape:collect="always"
       id="linearGradient4356">
      <stop
         style="stop-color:#9e8759;stop-opacity:1;"
         offset="0"
         id="stop4358" />
      <stop
         style="stop-color:#bfa36c;stop-opacity:1"
         offset="1"
         id="stop4360" />
    </linearGradient>
    <linearGradient
       id="linearGradient4336">
      <stop
         style="stop-color:#ffffff;stop-opacity:0.9186992;"
         offset="0"
         id="stop4338" />
      <stop
         style="stop-color:#ffffff;stop-opacity:0;"
         offset="1"
         id="stop4340" />
    </linearGradient>
    <linearGradient
       id="linearGradient4159">
      <stop
         id="stop4161"
         offset="0"
         style="stop-color:#000000;stop-opacity:1;" />
      <stop
         style="stop-color:#767676;stop-opacity:1;"
         offset="0.42452303"
         id="stop4163" />
      <stop
         id="stop4165"
         offset="1"
         style="stop-color:#000000;stop-opacity:1" />
    </linearGradient>
    <linearGradient
       id="linearGradient4153">
      <stop
         id="stop4155"
         offset="0"
         style="stop-color:#83704a;stop-opacity:1;" />
      <stop
         id="stop4157"
         offset="1"
         style="stop-color:#554930;stop-opacity:0;" />
    </linearGradient>
    <linearGradient
       id="linearGradient4125">
      <stop
         style="stop-color:#9e8759;stop-opacity:1;"
         offset="0"
         id="stop4127" />
      <stop
         style="stop-color:#9e8759;stop-opacity:0;"
         offset="1"
         id="stop4129" />
    </linearGradient>
    <linearGradient
       id="linearGradient4067">
      <stop
         style="stop-color:#9e8759;stop-opacity:1"
         offset="0"
         id="stop4069" />
      <stop
         id="stop4077"
         offset="0.61074436"
         style="stop-color:#dcc49b;stop-opacity:1;" />
      <stop
         style="stop-color:#af9355;stop-opacity:1"
         offset="1"
         id="stop4071" />
    </linearGradient>
    <linearGradient
       id="linearGradient4057">
      <stop
         style="stop-color:#c29b61;stop-opacity:1"
         offset="0"
         id="stop4059" />
      <stop
         id="stop4065"
         offset="0.5980534"
         style="stop-color:#ffffff;stop-opacity:0.49803922;" />
      <stop
         style="stop-color:#806640;stop-opacity:0;"
         offset="1"
         id="stop4061" />
    </linearGradient>
    <linearGradient
       id="linearGradient3966">
      <stop
         style="stop-color:#a37b1f;stop-opacity:1"
         offset="0"
         id="stop3968" />
      <stop
         id="stop3976"
         offset="0.40731156"
         style="stop-color:#ffffff;stop-opacity:1;" />
      <stop
         id="stop3974"
         offset="0.63508815"
         style="stop-color:#aa6d00;stop-opacity:1" />
      <stop
         style="stop-color:#8e8337;stop-opacity:1"
         offset="1"
         id="stop3970" />
    </linearGradient>
    <linearGradient
       id="linearGradient3895">
      <stop
         style="stop-color:#330000;stop-opacity:1"
         offset="0"
         id="stop3897" />
      <stop
         id="stop3899"
         offset="0.14002404"
         style="stop-color:#990000;stop-opacity:1" />
      <stop
         id="stop3901"
         offset="0.28004807"
         style="stop-color:#660000;stop-opacity:1" />
      <stop
         id="stop3903"
         offset="0.44471154"
         style="stop-color:#ff0000;stop-opacity:1" />
      <stop
         id="stop3905"
         offset="0.63942307"
         style="stop-color:#720000;stop-opacity:1" />
      <stop
         id="stop3907"
         offset="0.81730771"
         style="stop-color:#330000;stop-opacity:1" />
      <stop
         style="stop-color:#5a0003;stop-opacity:1"
         offset="1"
         id="stop3909" />
    </linearGradient>
    <linearGradient
       id="linearGradient3838">
      <stop
         id="stop3840"
         offset="0"
         style="stop-color:#000000;stop-opacity:1" />
      <stop
         style="stop-color:#780000;stop-opacity:1"
         offset="0.14002404"
         id="stop3842" />
      <stop
         style="stop-color:#450000;stop-opacity:1"
         offset="0.28004807"
         id="stop3844" />
      <stop
         style="stop-color:#ff0000;stop-opacity:1"
         offset="0.44471154"
         id="stop3846" />
      <stop
         style="stop-color:#720000;stop-opacity:1"
         offset="0.63942307"
         id="stop3848" />
      <stop
         style="stop-color:#1a0000;stop-opacity:1"
         offset="0.81730771"
         id="stop3850" />
      <stop
         id="stop3852"
         offset="1"
         style="stop-color:#5a0003;stop-opacity:1" />
    </linearGradient>
    <linearGradient
       id="linearGradient3814">
      <stop
         style="stop-color:#000000;stop-opacity:1"
         offset="0"
         id="stop3816" />
      <stop
         id="stop3830"
         offset="0.14002404"
         style="stop-color:#787878;stop-opacity:1" />
      <stop
         id="stop3828"
         offset="0.28004807"
         style="stop-color:#3f3f3f;stop-opacity:1" />
      <stop
         id="stop3826"
         offset="0.44471154"
         style="stop-color:#ffffff;stop-opacity:1" />
      <stop
         id="stop3824"
         offset="0.63942307"
         style="stop-color:#727272;stop-opacity:1" />
      <stop
         id="stop3822"
         offset="0.81730771"
         style="stop-color:#000000;stop-opacity:1" />
      <stop
         style="stop-color:#5a5451;stop-opacity:1"
         offset="1"
         id="stop3818" />
    </linearGradient>
    <linearGradient
       id="linearGradient3686">
      <stop
         style="stop-color:#ffffff;stop-opacity:1;"
         offset="0"
         id="stop3688" />
      <stop
         id="stop3700"
         offset="0.32259929"
         style="stop-color:#4f4f4f;stop-opacity:1;" />
      <stop
         style="stop-color:#000000;stop-opacity:1"
         offset="1"
         id="stop3690" />
    </linearGradient>
    <inkscape:perspective
       sodipodi:type="inkscape:persp3d"
       inkscape:vp_x="0 : 372.04724 : 1"
       inkscape:vp_y="0 : 1000 : 0"
       inkscape:vp_z="1052.3622 : 372.04724 : 1"
       inkscape:persp3d-origin="526.18109 : 248.03149 : 1"
       id="perspective2888" />
    <inkscape:perspective
       id="perspective3803"
       inkscape:persp3d-origin="0.5 : 0.33333333 : 1"
       inkscape:vp_z="1 : 0.5 : 1"
       inkscape:vp_y="0 : 1000 : 0"
       inkscape:vp_x="0 : 0.5 : 1"
       sodipodi:type="inkscape:persp3d" />
    <linearGradient
       inkscape:collect="always"
       xlink:href="#linearGradient3895"
       id="linearGradient3872"
       gradientUnits="userSpaceOnUse"
       gradientTransform="matrix(6.6942307,0,0,6.0505551,-1355.7759,-935.1594)"
       x1="245.05815"
       y1="193.16412"
       x2="245.05815"
       y2="240.01347" />
    <radialGradient
       inkscape:collect="always"
       xlink:href="#linearGradient3686"
       id="radialGradient3917"
       cx="697.93384"
       cy="576.15643"
       fx="697.93384"
       fy="576.15643"
       r="107.95767"
       gradientTransform="matrix(2.0000003,8.3414398e-8,-5.4756255e-8,1.3128732,-460.37708,-415.50145)"
       gradientUnits="userSpaceOnUse" />
    <linearGradient
       inkscape:collect="always"
       xlink:href="#linearGradient3814"
       id="linearGradient3933"
       x1="1146.901"
       y1="460.62991"
       x2="1147.0614"
       y2="744.09448"
       gradientUnits="userSpaceOnUse"
       gradientTransform="translate(-177.28887,-227.03916)" />
    <filter
       inkscape:collect="always"
       id="filter3962"
       color-interpolation-filters="sRGB">
      <feGaussianBlur
         inkscape:collect="always"
         stdDeviation="1.5021993"
         id="feGaussianBlur3964" />
    </filter>
    <linearGradient
       inkscape:collect="always"
       xlink:href="#linearGradient3966"
       id="linearGradient3972"
       x1="243.80051"
       y1="840.51031"
       x2="243.14757"
       y2="889.25433"
       gradientUnits="userSpaceOnUse" />
    <linearGradient
       inkscape:collect="always"
       xlink:href="#linearGradient3966"
       id="linearGradient4079"
       gradientUnits="userSpaceOnUse"
       x1="243.80051"
       y1="840.51031"
       x2="243.14757"
       y2="889.25433" />
    <linearGradient
       inkscape:collect="always"
       xlink:href="#linearGradient3966"
       id="linearGradient4081"
       gradientUnits="userSpaceOnUse"
       x1="243.80051"
       y1="840.51031"
       x2="243.14757"
       y2="889.25433" />
    <linearGradient
       inkscape:collect="always"
       xlink:href="#linearGradient3966"
       id="linearGradient4083"
       gradientUnits="userSpaceOnUse"
       x1="243.80051"
       y1="840.51031"
       x2="243.14757"
       y2="889.25433" />
    <linearGradient
       inkscape:collect="always"
       xlink:href="#linearGradient3966"
       id="linearGradient4085"
       gradientUnits="userSpaceOnUse"
       x1="243.80051"
       y1="840.51031"
       x2="243.14757"
       y2="889.25433" />
    <linearGradient
       inkscape:collect="always"
       xlink:href="#linearGradient3966"
       id="linearGradient4087"
       gradientUnits="userSpaceOnUse"
       x1="243.80051"
       y1="840.51031"
       x2="243.14757"
       y2="889.25433" />
    <linearGradient
       inkscape:collect="always"
       xlink:href="#linearGradient4159"
       id="linearGradient4100"
       x1="-190.09375"
       y1="359.9502"
       x2="-186.75491"
       y2="375.25"
       gradientUnits="userSpaceOnUse" />
    <linearGradient
       inkscape:collect="always"
       xlink:href="#linearGradient3966"
       id="linearGradient4286"
       gradientUnits="userSpaceOnUse"
       x1="243.80051"
       y1="840.51031"
       x2="243.14757"
       y2="889.25433" />
    <linearGradient
       inkscape:collect="always"
       xlink:href="#linearGradient4336"
       id="linearGradient4354"
       gradientUnits="userSpaceOnUse"
       gradientTransform="matrix(0.6821707,0,0,0.6821707,392.5985,119.28788)"
       x1="1245.6921"
       y1="375.32059"
       x2="1102.8165"
       y2="375.64847" />
    <linearGradient
       inkscape:collect="always"
       xlink:href="#linearGradient4356"
       id="linearGradient4362"
       x1="-49.533459"
       y1="375.32303"
       x2="-49.533459"
       y2="337.099"
       gradientUnits="userSpaceOnUse" />
    <filter
       inkscape:collect="always"
       id="filter4430"
       x="-0.056280002"
       width="1.11256"
       y="-0.1655294"
       height="1.3310587"
       color-interpolation-filters="sRGB">
      <feGaussianBlur
         inkscape:collect="always"
         stdDeviation="6.7226516"
         id="feGaussianBlur4432" />
    </filter>
    <linearGradient
       inkscape:collect="always"
       xlink:href="#linearGradient4442"
       id="linearGradient4448"
       x1="-158.18808"
       y1="890.67206"
       x2="910.36151"
       y2="890.67206"
       gradientUnits="userSpaceOnUse" />
    <filter
       inkscape:collect="always"
       id="filter4450"
       color-interpolation-filters="sRGB">
      <feGaussianBlur
         inkscape:collect="always"
         stdDeviation="8.8054448"
         id="feGaussianBlur4452" />
    </filter>
    <linearGradient
       inkscape:collect="always"
       xlink:href="#linearGradient4356"
       id="linearGradient4517"
       gradientUnits="userSpaceOnUse"
       x1="-49.533459"
       y1="375.32303"
       x2="-49.533459"
       y2="337.099" />
    <linearGradient
       inkscape:collect="always"
       xlink:href="#linearGradient3895"
       id="linearGradient4519"
       gradientUnits="userSpaceOnUse"
       gradientTransform="matrix(6.6942307,0,0,6.0505551,-1355.7759,-935.1594)"
       x1="245.05815"
       y1="193.16412"
       x2="245.05815"
       y2="240.01347" />
    <radialGradient
       inkscape:collect="always"
       xlink:href="#linearGradient3686"
       id="radialGradient4521"
       gradientUnits="userSpaceOnUse"
       gradientTransform="matrix(2.0000003,8.3414398e-8,-5.4756255e-8,1.3128732,-460.37708,-415.50145)"
       cx="697.93384"
       cy="576.15643"
       fx="697.93384"
       fy="576.15643"
       r="107.95767" />
    <linearGradient
       inkscape:collect="always"
       xlink:href="#linearGradient3814"
       id="linearGradient4523"
       gradientUnits="userSpaceOnUse"
       gradientTransform="translate(-177.28887,-227.03916)"
       x1="1146.901"
       y1="460.62991"
       x2="1147.0614"
       y2="744.09448" />
    <linearGradient
       inkscape:collect="always"
       xlink:href="#linearGradient3966"
       id="linearGradient4525"
       gradientUnits="userSpaceOnUse"
       x1="243.80051"
       y1="840.51031"
       x2="243.14757"
       y2="889.25433" />
    <linearGradient
       inkscape:collect="always"
       xlink:href="#linearGradient3966"
       id="linearGradient4527"
       gradientUnits="userSpaceOnUse"
       x1="243.80051"
       y1="840.51031"
       x2="243.14757"
       y2="889.25433" />
    <linearGradient
       inkscape:collect="always"
       xlink:href="#linearGradient3966"
       id="linearGradient4529"
       gradientUnits="userSpaceOnUse"
       x1="243.80051"
       y1="840.51031"
       x2="243.14757"
       y2="889.25433" />
    <linearGradient
       inkscape:collect="always"
       xlink:href="#linearGradient3966"
       id="linearGradient4531"
       gradientUnits="userSpaceOnUse"
       x1="243.80051"
       y1="840.51031"
       x2="243.14757"
       y2="889.25433" />
    <linearGradient
       inkscape:collect="always"
       xlink:href="#linearGradient3966"
       id="linearGradient4533"
       gradientUnits="userSpaceOnUse"
       x1="243.80051"
       y1="840.51031"
       x2="243.14757"
       y2="889.25433" />
    <linearGradient
       inkscape:collect="always"
       xlink:href="#linearGradient3966"
       id="linearGradient4535"
       gradientUnits="userSpaceOnUse"
       x1="243.80051"
       y1="840.51031"
       x2="243.14757"
       y2="889.25433" />
    <linearGradient
       inkscape:collect="always"
       xlink:href="#linearGradient4336"
       id="linearGradient4537"
       gradientUnits="userSpaceOnUse"
       gradientTransform="matrix(0.6821707,0,0,0.6821707,392.5985,119.28788)"
       x1="1245.6921"
       y1="375.32059"
       x2="1102.8165"
       y2="375.64847" />
    <linearGradient
       inkscape:collect="always"
       xlink:href="#linearGradient4159"
       id="linearGradient4539"
       gradientUnits="userSpaceOnUse"
       x1="-190.09375"
       y1="359.9502"
       x2="-186.75491"
       y2="375.25" />
  </defs>
  <sodipodi:namedview
     inkscape:document-units="mm"
     pagecolor="#ffffff"
     bordercolor="#666666"
     borderopacity="1.0"
     inkscape:pageopacity="0.0"
     inkscape:pageshadow="2"
     inkscape:zoom="0.13874258"
     inkscape:cx="-290.38286"
     inkscape:cy="-54.02449"
     inkscape:current-layer="layer1"
     id="namedview2883"
     showgrid="false"
     inkscape:window-width="1440"
     inkscape:window-height="748"
     inkscape:window-x="3"
     inkscape:window-y="0"
     inkscape:window-maximized="0" />
  <metadata
     id="metadata2885">
    <rdf:RDF>
      <cc:Work
         rdf:about="">
        <dc:format>image/svg+xml</dc:format>
        <dc:type
           rdf:resource="http://purl.org/dc/dcmitype/StillImage" />
        <dc:title></dc:title>
      </cc:Work>
    </rdf:RDF>
  </metadata>
  <g
     inkscape:label="Layer 1"
     inkscape:groupmode="layer"
     id="layer1"
     transform="translate(230.37403,392.086)">
    <path
       style="color:#000000;fill:url(#linearGradient4448);fill-opacity:1;fill-rule:evenodd;stroke:none;stroke-width:10;marker:none;visibility:visible;display:inline;overflow:visible;filter:url(#filter4450);enable-background:accumulate"
       d="m 116.625,748.9375 -328.1875,135.90625 c 0,0 -2.6875,0.87073 -2.6875,3.5625 0,1.37842 0.72896,2.30638 1.4375,2.90625 0.1025,0.0874 0.18066,0.17674 0.28125,0.25 0.0722,0.0522 0.14959,0.11115 0.21875,0.15625 0.007,0.004 0.0247,-0.004 0.0312,0 0.48609,0.31309 0.875,0.46875 0.875,0.46875 l 52.65625,22.625 273.5,117.5937 7.625,0 852.9375,0 c 36.01965,7e-4 49.10475,-7e-4 53.75005,0 1.4758,0 2.9195,-0.9724 4.3125,-2.8124 l 0,2.8124 c 0,0 60.6205,8e-4 74.1561,0 78.2765,0 141.75,-63.44212 141.75,-141.7187 0,-78.27658 -63.4735,-141.75 -141.75,-141.75 l -74.1561,0 0,2.8125 c -1.393,-1.84086 -2.8367,-2.8125 -4.3125,-2.8125 l -53.75005,0 -858.6875,0 z"
       id="path4238"
       transform="matrix(0.96592583,0.25881905,-0.25881905,0.96592583,227.77065,90.074447)" />
    <g
       id="g4454"
       transform="matrix(0.5,-0.8660254,0.8660254,0.5,-422.28584,518.05761)">
      <path
         sodipodi:nodetypes="cccccccs"
         id="path4026"
         d="m -217.8486,373.05823 c 0,-2.69177 2.68209,-3.559 2.68209,-3.559 l 328.21459,-135.90848 5.7336,0 0,283.46457 -7.64481,0 -326.15133,-140.2192 c 0,0 -2.83414,-1.02106 -2.83414,-3.77789 z"
         style="color:#000000;fill:url(#linearGradient4517);fill-opacity:1;fill-rule:evenodd;stroke:none;stroke-width:10;marker:none;visibility:visible;display:inline;overflow:visible;enable-background:accumulate" />
      <path
         id="path4364"
         d="m -169.45987,361.2171 268.842352,-89.82648 17.837878,19.11202 -284.76903,78.35927 -1.9112,-7.64481 z"
         style="opacity:0.65573772;color:#000000;fill:#ffffff;fill-opacity:1;fill-rule:evenodd;stroke:none;stroke-width:10;marker:none;visibility:visible;display:inline;overflow:visible;filter:url(#filter4430);enable-background:accumulate" />
      <path
         sodipodi:nodetypes="cscscscscccscc"
         id="rect3811"
         d="m 113.02347,233.58584 c 0.0399,0.84493 0.0625,1.70771 0.0625,2.5625 0,13.80699 -5.27481,26.39399 -13.906245,35.84375 8.630965,9.44966 13.906245,22.00594 13.906245,35.8125 0,13.4241 -5.00964,25.67631 -13.218745,35.03125 8.218445,9.35719 13.218745,21.62986 13.218745,35.0625 0,13.80699 -5.27481,26.36274 -13.906245,35.8125 8.631435,9.44976 13.906245,22.03677 13.906245,35.84375 0,13.43265 -5.0003,25.67406 -13.218745,35.03125 7.689565,8.76288 12.569065,20.03966 13.156245,32.46875 l 858.67643,0 c 11.96264,0 21.65625,-63.44217 21.65625,-141.71875 0,-78.27658 -9.69361,-141.75 -21.65625,-141.75 l -858.67643,0 z"
         style="color:#000000;fill:url(#linearGradient4519);fill-opacity:1;fill-rule:evenodd;stroke:none;stroke-width:10;marker:none;visibility:visible;display:inline;overflow:visible;enable-background:accumulate" />
      <path
         sodipodi:nodetypes="cccscc"
         id="path3712"
         d="m 1029.7767,233.58657 0,283.46875 c 0,0 60.6298,0 74.1654,-7.3e-4 78.2765,0 141.75,-63.44217 141.75,-141.71875 0,-78.27658 -63.4735,-141.75 -141.75,-141.75 l -74.1654,7.3e-4 z"
         style="color:#000000;fill:url(#radialGradient4521);fill-opacity:1;fill-rule:evenodd;stroke:none;stroke-width:10;marker:none;visibility:visible;display:inline;overflow:visible;enable-background:accumulate" />
      <path
         sodipodi:nodetypes="ccccccsccc"
         id="rect3921"
         d="m 968.71113,233.58584 0,0.125 c 11.6021,2.68173 20.9064,65.05353 20.9062,141.625 0,76.5769 -9.3029,138.95154 -20.9062,141.625 l 0,0.0937 c 41.18787,7.8e-4 51.85407,0.002 56.75867,7.8e-4 11.9627,0 21.6562,-63.44217 21.6562,-141.71875 0,-78.27658 -9.6935,-141.75 -21.6562,-141.75 l -56.75867,-7.8e-4 0,5e-5 z"
         style="color:#000000;fill:url(#linearGradient4523);fill-opacity:1;fill-rule:evenodd;stroke:none;stroke-width:10;marker:none;visibility:visible;display:inline;overflow:visible;enable-background:accumulate" />
      <g
         transform="matrix(1.2888531,0,0,1.2888531,408.61733,-747.59827)"
         id="text3935"
         style="font-size:24px;font-style:normal;font-variant:normal;font-weight:normal;font-stretch:normal;text-align:start;line-height:100%;writing-mode:lr-tb;text-anchor:start;color:#000000;fill:url(#linearGradient4535);fill-opacity:1;fill-rule:evenodd;stroke:none;stroke-width:10;marker:none;visibility:visible;display:inline;overflow:visible;enable-background:accumulate;font-family:Adobe Garamond Pro;-inkscape-font-specification:Adobe Garamond Pro">
        <path
           id="path3940"
           style="font-size:72px;font-style:italic;font-weight:bold;line-height:100%;fill:url(#linearGradient4525);fill-opacity:1;marker:none;font-family:Adobe Garamond Pro;-inkscape-font-specification:Adobe Garamond Pro Bold Italic"
           d="m 235.87619,851.09434 c 2.088,-6.696 2.664,-7.128 5.76,-7.704 l 1.872,-0.36 c 0.936,-0.288 1.08,-2.088 0.216,-2.52 -3.096,0.144 -6.33601,0.216 -9.792,0.216 -3.456,0 -7.20001,-0.072 -10.944,-0.216 -0.936,0.288 -1.224,2.088 -0.504,2.52 l 1.872,0.288 c 3.67199,0.576 3.6,1.944 1.8,7.776 l -8.424,26.784 c -2.088,6.69599 -2.66401,7.2 -5.76,7.704 l -2.376,0.36 c -1.008,0.288 -0.936,2.088 -0.144,2.52 3.81599,-0.144 7.056,-0.216 10.512,-0.216 l 8.28,0 c 2.95199,0 6.192,0.072 9.216,0.072 3.09599,0.072 5.976,0.072 8.208,0.144 1.512,-1.944 4.32,-7.77601 5.472,-11.376 -0.36,-0.864 -2.088,-1.008 -2.88,-0.432 -5.904,8.06399 -8.42401,8.28 -14.688,8.28 -4.896,0 -6.192,-0.504 -6.624,-1.8 -0.432,-1.296 -0.144,-3.38401 0.936,-6.768 l 7.992,-25.272" />
        <path
           id="path3942"
           style="font-size:72px;font-style:italic;font-weight:bold;line-height:100%;fill:url(#linearGradient4527);fill-opacity:1;marker:none;font-family:Adobe Garamond Pro;-inkscape-font-specification:Adobe Garamond Pro Bold Italic"
           d="m 273.75044,861.60634 c 1.584,0 2.016,1.512 2.016,3.024 0,5.47199 -3.528,13.392 -5.472,16.632 -1.944,3.16799 -3.528,4.824 -5.328,4.824 -1.368,0 -2.232,-1.152 -2.232,-2.952 0,-6.912 4.536,-15.55201 7.128,-18.792 1.512,-1.872 2.736,-2.736 3.888,-2.736 m -0.504,-3.168 c -3.24,0 -7.05601,0.936 -11.232,4.536 -4.824,4.17599 -7.488,10.728 -7.56,16.272 -0.072,5.03999 3.096,10.008 10.44,10.008 4.17599,0 8.496,-1.44001 12.24,-5.04 4.17599,-4.032 6.696,-10.08001 6.696,-15.264 0,-5.184 -2.88001,-10.512 -10.584,-10.512" />
        <path
           id="path3944"
           style="font-size:72px;font-style:italic;font-weight:bold;line-height:100%;fill:url(#linearGradient4529);fill-opacity:1;marker:none;font-family:Adobe Garamond Pro;-inkscape-font-specification:Adobe Garamond Pro Bold Italic"
           d="m 313.26044,858.43834 c -2.592,0 -4.824,1.944 -7.056,4.968 -1.728,2.232 -3.6,5.328 -5.976,9.576 l -0.36,0 2.592,-7.632 c 1.224,-3.672 1.07999,-6.912 -3.096,-6.912 -5.256,0 -9.864,5.112 -11.304,7.992 -0.144,0.792 0.432,1.584 1.296,1.656 2.016,-2.304 4.752,-4.392 5.976,-4.392 0.792,0 0.72,0.936 0.288,2.304 -2.016,6.19199 -4.68,13.752 -6.768,20.376 -0.72,2.304 2.16,2.88 3.96,2.88 1.584,0 3.024,-0.288 3.456,-1.296 2.304,-5.616 4.32,-11.01601 7.56,-16.848 1.872,-3.312 3.744,-6.264 4.968,-6.264 0.576,0 0.936,0.432 1.152,1.656 0.36,1.872 0.648,3.312 2.088,3.312 1.944,0 4.752,-2.95201 4.752,-7.056 0,-2.952 -1.44,-4.32 -3.528,-4.32" />
        <path
           id="path3946"
           style="font-size:72px;font-style:italic;font-weight:bold;line-height:100%;fill:url(#linearGradient4531);fill-opacity:1;marker:none;font-family:Adobe Garamond Pro;-inkscape-font-specification:Adobe Garamond Pro Bold Italic"
           d="m 332.36181,858.43834 c -5.47199,0 -12.096,4.896 -14.832,8.568 -0.072,1.008 0.432,1.44 1.224,1.728 2.016,-1.584 4.968,-4.392 6.408,-4.392 0.576,0 0.648,0.936 0.288,1.872 l -5.976,15.048 c -0.576,1.512 -1.08,2.952 -1.08,4.248 0,2.016 1.512,3.744 3.96,3.744 5.76,0 13.68001,-8.49601 17.496,-13.896 l 0.144,0 -4.032,10.224 c -0.864,2.16 0.648,3.672 2.448,3.672 6.048,0 13.104,-5.47201 15.12,-9 0,-1.008 -0.432,-1.512 -1.296,-1.656 -1.8,1.872 -5.4,4.68 -6.552,4.68 -0.936,0 -0.648,-1.152 -0.36,-2.016 2.52,-7.056 5.47201,-14.18401 8.208,-21.24 -1.008,-0.792 -2.664,-1.584 -5.04,-1.584 -1.08,0 -1.872,0.216 -2.664,0.576 -3.23999,6.76799 -8.424,17.28 -14.4,22.392 -1.44,1.224 -2.304,1.512 -2.736,1.512 -0.864,0 -1.08,-0.648 -0.576,-1.944 l 7.128,-17.496 c 0.216,-0.504 0.36,-1.44 0.36,-2.016 0,-1.368 -1.512,-3.024 -3.24,-3.024" />
        <path
           id="path3948"
           style="font-size:72px;font-style:italic;font-weight:bold;line-height:100%;fill:url(#linearGradient4533);fill-opacity:1;marker:none;font-family:Adobe Garamond Pro;-inkscape-font-specification:Adobe Garamond Pro Bold Italic"
           d="m 369.43956,858.43834 c -6.91199,0 -11.52,3.528 -13.608,8.208 0.072,0.792 0.792,1.44 1.584,1.368 1.296,-1.44 3.384,-4.104 5.832,-4.104 1.08,0 1.368,0.504 0.504,2.952 -1.08,3.09599 -6.84,19.152 -7.128,20.088 -0.504,1.512 1.80001,2.304 4.896,2.304 1.656,0 2.376,-0.288 2.808,-1.296 2.952,-6.912 6.62401,-15.12001 10.44,-19.944 2.808,-3.528 4.968,-4.896 5.904,-4.896 0.576,0 1.008,0.432 1.008,1.008 0,0.72 -0.288,1.656 -1.008,3.384 -2.95199,7.55999 -7.2,18.576 -7.488,19.44 -0.504,1.512 1.80001,2.304 4.968,2.304 1.512,0 2.376,-0.288 2.952,-1.584 3.096,-6.624 6.84001,-14.83201 10.944,-19.944 2.52,-3.24 4.464,-4.608 5.256,-4.608 0.72,0 1.008,0.432 1.008,1.008 0,0.72 -0.288,1.656 -0.936,3.384 -1.8,5.03999 -3.96,10.008 -6.12,15.048 -0.576,1.368 -1.08,2.808 -1.08,3.888 0,1.296 1.44,2.808 3.096,2.808 7.2,0 13.176,-5.68801 15.192,-9.288 0.072,-0.936 -0.648,-1.512 -1.44,-1.368 -2.016,2.088 -5.112,4.896 -6.408,4.896 -0.576,0 -0.72,-0.576 -0.288,-1.584 2.16,-5.112 3.96,-9.28801 5.328,-12.888 0.864,-2.232 1.44,-4.464 1.44,-6.192 0,-1.872 -1.44,-4.392 -4.752,-4.392 -5.18399,0 -11.16,5.32801 -16.056,13.032 l -0.216,0 c 1.8,-4.32 3.096,-7.416 3.096,-8.856 0,-1.872 -0.792,-4.176 -3.96,-4.176 -6.04799,0 -12.168,7.416 -16.056,13.032 l -0.144,0 3.24,-8.496 c 0.72,-1.944 0.72,-4.536 -2.808,-4.536" />
      </g>
      <path
         sodipodi:nodetypes="csccccc"
         id="path4334"
         d="m 1145.4467,288.70349 c 8.8993,25.26008 14.0292,54.91688 14.0292,86.64026 0,31.19986 -4.9503,60.38756 -13.5769,85.36488 -2.2817,8.92095 1.6434,12.67204 9.1404,10.63395 53.9078,-5.2042 78.9988,-40.9029 87.3427,-95.99883 0,-49.59217 -37.3658,-90.49238 -85.467,-96.0706 -11.4923,-0.6829 -13.1031,3.81011 -11.4684,9.43034 z"
         style="color:#000000;fill:url(#linearGradient4537);fill-opacity:1;fill-rule:evenodd;stroke:none;stroke-width:10;marker:none;visibility:visible;display:inline;overflow:visible;enable-background:accumulate" />
      <path
         id="rect4089"
         d="m -170.53125,351.03125 -44.625,18.46875 c 0,0 -2.6875,0.87073 -2.6875,3.5625 0,2.75683 2.84375,3.78125 2.84375,3.78125 l 52.65625,22.625 -8.1875,-48.4375 z"
         style="color:#000000;fill:url(#linearGradient4539);fill-opacity:1;fill-rule:evenodd;stroke:none;stroke-width:10;marker:none;visibility:visible;display:inline;overflow:visible;enable-background:accumulate" />
    </g>
  </g>
</svg>
